<svg width="64" height="80" viewBox="0 0 64 80" xmlns="http://www.w3.org/2000/svg">
  <!-- Drop shadow -->
  <ellipse cx="32" cy="74" rx="9" ry="3" fill="#000000" opacity="0.18"/>

  <!-- Pin body: teardrop / classic map pin shape -->
  <path
    d="M32 2
       C16.536 2 4 14.536 4 30
       C4 46.5 20 58 32 76
       C44 58 60 46.5 60 30
       C60 14.536 47.464 2 32 2
       Z"
    fill="#FFFFFF"
    stroke="#D9DCE1"
    stroke-width="1.5"
  />

  <!-- Heart, thick red outline, filling close to the edges of the pin's head -->
  <path
    d="M32 18.5
       C28.2 12.5 19.5 12 14.8 17.3
       C10.4 22.2 10.6 29.6 15.5 34.5
       L32 50
       L48.5 34.5
       C53.4 29.6 53.6 22.2 49.2 17.3
       C44.5 12 35.8 12.5 32 18.5
       Z"
    fill="none"
    stroke="#E31C25"
    stroke-width="5.2"
    stroke-linejoin="round"
    stroke-linecap="round"
  />
</svg>
